<?xml version="1.0" encoding="UTF-8"?>
<svg id="Camada_1" data-name="Camada 1" xmlns="http://www.w3.org/2000/svg" xmlns:xlink="http://www.w3.org/1999/xlink" viewBox="0 0 748.93 840.71">
  <defs>
    <style>
      .cls-1 {
        fill: #de945a;
      }

      .cls-2 {
        fill: #f8ebe7;
      }

      .cls-3 {
        fill: #0a0e0b;
      }

      .cls-4 {
        fill: #fddfdf;
      }

      .cls-5 {
        fill: #ed8125;
      }

      .cls-6 {
        fill: #70ac43;
      }

      .cls-7 {
        fill: #fba919;
      }

      .cls-8 {
        fill: #fceded;
      }

      .cls-9 {
        fill: #de9458;
      }

      .cls-10 {
        fill: #0b0e0b;
      }

      .cls-11 {
        fill: #6fad43;
      }

      .cls-12 {
        fill: #fce8db;
      }

      .cls-13, .cls-14 {
        fill: none;
      }

      .cls-15 {
        fill: #fdf1ed;
      }

      .cls-16 {
        fill: #fceeed;
      }

      .cls-17 {
        fill: #fcdfde;
      }

      .cls-18 {
        fill: #6fac43;
      }

      .cls-19 {
        fill: #ed2226;
      }

      .cls-20 {
        fill: #fcf2ec;
      }

      .cls-21 {
        fill: #fcd8d6;
      }

      .cls-22 {
        fill: #fdecea;
      }

      .cls-23 {
        fill: #ed2125;
      }

      .cls-24 {
        fill: #fbcac7;
      }

      .cls-25 {
        fill: #b11f24;
      }

      .cls-26 {
        fill: #fbefed;
      }

      .cls-27 {
        fill: #fce8de;
      }

      .cls-28 {
        fill: #fde4e0;
      }

      .cls-29 {
        fill: #fcded5;
      }

      .cls-30 {
        fill: #f9b8bb;
      }

      .cls-31 {
        fill: #facccf;
      }

      .cls-32 {
        fill: #0b0e0c;
      }

      .cls-33 {
        fill: #fff3e2;
        stroke: #9f1c20;
        stroke-width: 7px;
      }

      .cls-33, .cls-14 {
        stroke-miterlimit: 10;
      }

      .cls-34 {
        fill: #0c0f0c;
      }

      .cls-35 {
        fill: #f58120;
      }

      .cls-36 {
        fill: #fceae9;
      }

      .cls-14 {
        stroke: #0c8843;
        stroke-width: 2px;
      }

      .cls-37 {
        fill: #fcdbd6;
      }

      .cls-38 {
        fill: #dd945a;
      }

      .cls-39 {
        fill: #0c8843;
      }

      .cls-40 {
        fill: #df9459;
      }

      .cls-41 {
        clip-path: url(#clippath);
      }

      .cls-42 {
        fill: #6bae44;
      }

      .cls-43 {
        fill: #ee2326;
      }
    </style>
    <clipPath id="clippath">
      <circle class="cls-13" cx="374.47" cy="421.52" r="286.4"/>
    </clipPath>
  </defs>
  <circle class="cls-14" cx="374.47" cy="423.75" r="308.03"/>
  <circle class="cls-33" cx="374.47" cy="423.75" r="288.63"/>
  <path class="cls-1" d="M573.54,418.34c2.45,4.09-.61,7.16-3.9,7.5-10.28,1.04-3.6-11.31-10.18-14.15-2.64,1.91-7.55,6.45-10.88,3.57-5.62-4.85-2.05-14.31,3.4-18.21,7.12-5.1,24.98-8.96,30.65,3.34,1.59,3.46.55,8.23-3.4,8.95-2.71.5-5.22-1-8.69-.86-1.17,3.35,1.03,6.58,2.99,9.86Z"/>
  <path class="cls-40" d="M569.9,312.93c.34-2.3-5.36-3.17-6.35-3.78-1.87-1.15-1.3-3.65-.44-4.73,3.52-4.42,6.75,1.74,10.52,2.88,1.81-2.34.53-5.65,3.76-6.92,1.03-.41,2.36-.19,3.64.88,3.17,2.67,4.35,7.22,2.58,11.14-2.83,6.28-9.16,13.36-16.18,9.24-1.51-.89-2.2-2.29-2.1-3.89.19-3.12,4.31-2.93,4.59-4.83Z"/>
  <circle class="cls-5" cx="623.42" cy="428.99" r="11.62"/>
  <g>
    <circle class="cls-43" cx="531.06" cy="347.41" r="21.78"/>
    <circle class="cls-16" cx="525.96" cy="340.08" r="5.24"/>
    <circle class="cls-26" cx="524.27" cy="356.21" r="5.32"/>
    <circle class="cls-17" cx="540.41" cy="347.46" r="3.6"/>
  </g>
  <g>
    <circle class="cls-43" cx="535.72" cy="254.25" r="17.06"/>
    <circle class="cls-15" cx="532.98" cy="245.75" r="3.86"/>
    <circle class="cls-22" cx="545.75" cy="252.91" r="3.44"/>
    <circle class="cls-2" cx="539.07" cy="263.08" r="3.42"/>
    <circle class="cls-12" cx="526.94" cy="257.6" r="2.24"/>
  </g>
  <g>
    <circle class="cls-42" cx="518.66" cy="299.54" r="8.26"/>
    <circle class="cls-34" cx="518.63" cy="299.54" r="4.52"/>
  </g>
  <g>
    <circle class="cls-18" cx="602.13" cy="358.81" r="14.37"/>
    <circle class="cls-32" cx="602.1" cy="358.73" r="7.88"/>
  </g>
  <g>
    <path class="cls-39" d="M170.77,35.72c-19.01,16.41-33.78,28.6-46.33,37-7.15,4.82-13.73,8.38-19.92,10.78-4.13,1.61-7.64,2.64-12.03,3.32-3.89.48-8.12-.08-8.12-.08-2.31-.53-14.12-3.09-14.28-13.51,0,0-.13-1.67,1.42-3.2,1.02-1.05,3.22-2.11,5.94-1.9,0,0,2.25-.2,2,2.36-.19,2.07,2.77,14.38,16.02,11.82,2.44-.61,4.96-1.36,7.65-2.41,16.2-6.22,35.58-21.68,64.71-46.79.42-.47,9.59-8.57,20.4-15.76,6.46-4.39,12.17-7.55,16.93-9.41,4.97-2.14,9.01-2.86,11.91-2.3.29.06.73.2,1.16.23,3.57,1.02,8.5,4.07,2.32,14.1-.19.39-.39.77-.69,1.3,5.2-5.81,11.57-10.63,19.25-12.1,1.04-.2,11.16-2.18,19.01,4.09,4,3.17,6.71,8.05,7.89,14.4,1.51,7.57,1.03,17.14-1.15,28.71-2.05,10.75-5.2,20.66-9.48,29.34-3.84,7.68-8.39,14.62-13.75,20.43-4.64,5.2-9.83,9.54-15.54,12.92-4.85,2.95-9.93,5.22-14.82,6.33-14.96,3.54-24.22,2.33-24.24,2.31-15.4-1.65-23.79-8.72-28.13-14.61-6.17-8.35-8.11-19.43-4.64-29.94,2.2-6.88,7.89-13.29,16.03-17.63,5.78-3.19,12.39-5,18.82-5.25,12.2-29.23,31.11-46.15,27.28-50.44-.36-.39-1.2-.45-1.75-.45-1.93.06-4.56.73-7.75,2.01-4.47,1.79-9.89,4.88-16.12,8.96-4.27,2.71-20.07,15.32-20,15.37ZM239.9,12.94c-8.58,1.52-15.51,8.4-22.75,18.16-5.16,6.88-9.2,14.32-10.7,16.99-1.66,3.76-3.61,8.41-5.37,13.62,4.56,1.46,8.54,4.03,11.39,7.44,2.63,3,4.44,6.55,5.48,10.61.79,2.38,1.24,5.53,1.38,7.82.1,3.23-.36,6.7-1.97,9.4,0,0-.57,1.29-2.63,2.01-1.27.41-3.54.26-5.38-1.16,0,0-1.86-.95-.37-3.06.81-1.25,3.68-8.22,1.67-15.78-.02.01-1.78-8.92-11.03-13.08-3.96,12.18-6.62,25.67-4.16,33.46.4,1.53-1.3,2.69-2.65,1.88-5.67-3.73-14.14-12.97-5.91-35.73.28-.43.42-.93.58-1.32-5.18.42-10.48,1.99-15.18,4.63-7.05,3.78-12.07,9.24-14.02,15.3-1.42,4.36-1.87,9.15-1.2,13.69.74,4.76,2.44,9.21,5.17,12.98,5.56,7.39,14.24,11.88,25.23,12.97,1.78.2,3.52.29,5.23.29,16.79-.56,29.14-10.43,38.12-21.85,12.25-15.7,18.51-34.42,18.5-34.44,19.2-51.95-2.1-55.05-2.55-55-3.66-.77-6.91.16-6.9.16Z"/>
    <path class="cls-39" d="M328.15,50.83c-4.25,7.05-18.08,31.91-27.71,31.75,0-.01-7.69.64-6.8-10.53-.42.62-.96,1.25-1.38,1.87-4.13,5.63-7.93,9.09-11.39,10.48,0,0-1.16.39-2.6.59.01-.02-8.88,1.86-7.79-13.88.78-14.6,16.47-32.34,28.57-32.38,0,0,1.54-.05,2.73.29,1.46.42,2.43,1.24,3.01,1.87.31.54.62,1.08.93,1.73.88-1.45,1.55-2.54,2.24-3.4.91-1.22,2.26-2.03,3.91-2.17,1.23-.11,2.47-.21,3.7-.31,1.66-.13,2.81,1.48,2.02,2.79-6.28,9.51-21.87,37.92-16.86,39.93.18.03,7.57.17,24.25-29.34.45-.71,1.06-1.1,1.94-1.16,1-.07,1.7.91,1.26,1.85ZM295.48,63.29c1.86-5.57,4.56-10.99,7.04-15.45.28-.94.78-3.72-.39-5.2-.16-.33-.44-.53-.84-.71-.43-.15-5.21-.93-17.49,19.8-.09-.02-9.8,17.79-4.56,19.7.26.08.87.11,1.34-.07,2.74-1.4,5.89-4.44,9.16-8.95,2.53-3.51,4.61-7.05,5.75-9.12Z"/>
    <path class="cls-39" d="M365.66,28.24c-1.91-1.35-11.57-8.15-8.04-17.87,0,0,.62-1.6,2.46-2.44,1.44-.6,3.83-.75,6.1.46,0,0,2.12.65.96,2.94-.93,1.85-2.75,14.37,10.25,16.95,2.45.34,5.15.59,7.85.62,17.06.27,40.44-6.87,76.56-19.37.56-.28,12.13-4.38,24.66-7.07C494.05.79,500.51-.03,505.6,0c7.05-.1,11.54,1.18,13.8,3.9.57.68,2.15,2.59,1.76,6.09-.28,2.95-1.84,6.11-4.76,9.49-1.68,2.57-15.28,17.96-46.86,36.39-29.6,17.51-37.69,37.88-33.84,46.16,0,0,.77,1.89,2.18,1.79,40.18.1,70.51-31.41,78.21-39.53-.81-1.77-1.35-3.61-1.65-5.4-1.17-5.99-1.18-11.64.35-16.31,1.28-4.03,3.57-7.06,6.4-8.59,2.38-1.27,4.92-1.23,6.82-.04,1.54,1,3.97,3.48,2.64,9.8-1.21,5.77-4.7,13.61-9.36,21.45.94,1.69,2.04,3.19,3.08,4.33.72.84.61,1.98-.31,2.71-.89.62-2.25.46-2.97-.38-.84-.87-1.64-1.95-2.32-3.01-3.09,4.01-10.7,12.88-21.81,21.18-8.57,6.33-17.34,11.13-26.41,14.22-10.18,3.39-20.56,4.67-31.29,3.67-4.38-.41-6.13-1.79-6.13-1.79-4.69-3.8-7.25-8.98-7.4-15.35-.08-5.57,1.78-11.81,5.55-17.89,3.75-5.96,9.03-11.33,15.43-15.38,5.21-3.37,11.35-6.48,17.73-9.71,14.1-7.13,30.58-14.49,42.77-25.13,13.04-11.29,8.89-16.26,8.73-16.42,0,0-.11-.14-.25-.16-1.11-1.46-4.55-2.31-9.77-2.26-4.67.03-10.81.77-18.1,2.36-7.27,1.47-14,3.59-18.59,4.98-1.39.4-5.57,1.86-5.56,1.86-23.58,8.18-41.62,14-56.19,17.13-14.03,2.94-25.08,3.52-34.34,1.17-3.59-.89-7.49-3.11-7.49-3.11ZM525.26,37c-.51-.1-1.37.19-1.67.36-3.3,1.78-7.37,8.96-4.94,21.09.12.72.26,1.32.52,1.95,3.62-6.56,6.2-12.75,7.16-17.52.32-1.56.31-2.83.21-3.66-.26-2.02-1.28-2.22-1.28-2.22Z"/>
    <path class="cls-39" d="M561.61,73.03c-6.29,5.34-27.35,24.54-36.36,21.38.04,0-10.3-2.4-.24-17.67,6.46-9.77,16.64-17.95,20.96-21.12,1.26-.87,2.92-1.18,4.42-.82,1.21.29,2.42.58,3.63.88,1.63.4,2.22,2.3,1.04,3.29-8.88,7.06-32.72,29.09-28.58,32.58.16.09,7.15,2.55,32.41-20.16.54-.56,1.36-.7,2.09-.51.98.25,1.46,1.43.62,2.15ZM551.55,50.54c.29-1.21,2.55-1.72,4.82-1.16,2.4.59,4.04,2.06,3.73,3.26-.31,1.21-2.43,1.72-4.81,1.14-2.26-.55-4.03-2.03-3.74-3.24Z"/>
    <path class="cls-39" d="M608.2,86.85c-6.65,4.9-29.12,22.62-37.94,18.86.04,0-10.83-3.39.43-17.78,2.21-2.92,9.52-10.14,9.53-10.13,9.44-8.35,8.13-9.07,8.11-9.08-1.29-1.92-8.24.39-18.66,8.82-10.58,8.5-19.02,21.12-19.02,21.11-.43.71-1.6.88-2.2.26-7.18-7.04,6.32-23.43,6.41-23.4,3.91-4.74,9.13-9.72,13.74-13.53,1.4-1.27,3.63-1.61,5.62-1.06,1.13.27,2.26.54,3.39.82,1.49.42,2.05,2.23.88,3.07-6.02,4.78-11.68,9.71-15.59,13.72-4.09,4.19-6.84,7.93-8.64,10.98,5.77-7.77,17.16-18.25,26.43-22.54,4.14-1.88,8.01-2.64,11.74-.69,11.26,5.81-7.29,19.45-7.19,19.5-8.52,7.39-15.72,15.02-13.55,17.17.16.1,6.99,3.02,33.78-17.94.57-.53,1.41-.61,2.13-.37,1.09.36,1.37,1.53.6,2.23Z"/>
    <path class="cls-39" d="M599.77,111.76c2.91,2.88,7.37,2.97,11.6,2.05,5.91-1.29,11.44-4.45,11.44-4.45,4.75-2.49,10.91-6.12,18.6-11.53.72-.45,1.44-.54,2.15-.26,1.07.42,1.29,1.6.49,2.26-3.54,2.38-11.69,7.97-19.85,12.21,0,0-6.39,3.67-13.77,4.8-4.68.76-9.93.04-13.91-3.06-4.99-3.9-6.16-8.77-5.07-13.06,1.7-6.72,8.48-12.29,8.5-12.28,9.58-8.14,24.63-12.37,33.13-8.27,0,0,1.42.64,2.36,1.47,1.14,1.03,1.67,2.19,1.92,3.01.37,1.59.01,3.27-1.1,5.15,0,0-4.34,6.84-7.72,3.55-2.53-2.37.75-4.31.76-4.31.95-.74,2.42-1.41,3.18-1.97,2.43-1.76,1.26-3.04,1.26-3.04-.32-.33-4.35-3.15-24.75,10.01-14.99,11.37-9.15,17.74-9.21,17.71Z"/>
    <path class="cls-39" d="M667.55,109.52c-7.09,4.29-31,20-39.52,15.47.04,0-9.92-3.98,2.41-17.51,7.91-8.67,19.3-15.17,24.09-17.63,1.39-.66,3.09-.71,4.54-.12,1.17.48,2.33.95,3.49,1.44,1.57.65,1.87,2.62.55,3.42-9.93,5.6-37.03,23.68-33.42,27.77.15.11,6.75,3.63,35.39-14.88.62-.47,1.46-.48,2.17-.18.94.41,1.24,1.65.3,2.23ZM660.85,85.68c.47-1.15,2.8-1.31,4.99-.4,2.31.96,3.73,2.67,3.24,3.81-.49,1.15-2.69,1.32-4.98.37-2.17-.9-3.72-2.63-3.25-3.79Z"/>
  </g>
  <g class="cls-41">
    <path class="cls-7" d="M284.42,616.32c3.97,8.56,4.4,15.83,9.76,26.22-4.88-1.88-4.84-7.22-7.82-10.52-3.41-3.77-7.69-7.22-9.11-12.34-.8-2.88-3.27-2.11-4.59-3.28-5.81-5.18-10.27-13.36-10.75-21.7,4.82,3.61,4.33,9.65,8.4,14l3.46-5.29c2.73,6.47,4.25,12.56,8.33,18.11,1.92-.89,1.58-2.9,2.32-5.2Z"/>
    <path class="cls-7" d="M319.91,676.5c-1.58-3.72-1.85-7.06-2.81-10.52-.57-2.06-2.34-1.21-3.14-1.95-6.48-5.91-24.25-25.89-16.41-34.79,1.43,7.87,5.87,13.79,9.71,20.22,2.29,3.83,4.09,7.62,7.44,10.94,1.29-5-2.42-7.72-1.93-13.21,6.33,8.14,9.07,18.51,7.13,29.31Z"/>
    <path class="cls-7" d="M462.08,686.1c-2.5-4.56.2-8.48.05-12.87,1.69-7.72,3.15-15.06,3.11-23.36,6.57-.69-.29,31.97-3.16,36.23Z"/>
    <path class="cls-7" d="M548.03,583.42c4.07.93,1.13,25.08-4.82,29.79,1.13-10.05,3.93-18.9,3.14-28.72-.06-.71,1.27-1.17,1.68-1.08Z"/>
    <path class="cls-7" d="M325.29,662.6c5.72,3.44,3.77,20.99-1,25.93.28-9.11-.4-17.29,1-25.93Z"/>
    <path class="cls-7" d="M249.82,593.49c-1.33,1.85-20.19-25.76-13.71-26.68l13.71,26.68Z"/>
    <path class="cls-7" d="M236.33,579.96c-3.07,1.73-13.57-20.77-9.7-23.9l9.7,23.9Z"/>
    <path class="cls-7" d="M515.63,680.71c-3.92-2.17-.41-4.58-.24-6.76.46-5.83,2.94-19.3.53-19.68,9.54-2.72,1.6,24.42-.29,26.44Z"/>
    <path class="cls-7" d="M350.65,656.34c2.26,8.91,7.36,15.4,10.8,24.06-8.61-5.89-12.29-15.85-14.42-25.4.27-.75,1.36-1.42,1.68-1.15.48.41,1.06,1.55,1.94,2.49Z"/>
    <path class="cls-7" d="M539.2,611.42c-.44,8.43-1.23,16.55-6.95,23.52l3.76-26.72c2.25.45,2.21,1.77,3.18,3.19Z"/>
    <path class="cls-7" d="M554.99,559.54c5.41.94,2.34,25.76-.72,28.84l.72-28.84Z"/>
    <path class="cls-7" d="M260.66,605.79c-1.14,1.61-18.46-30.15-8.53-21.86,2.03,7.41,7.51,12.92,8.53,21.86Z"/>
    <path class="cls-7" d="M561.5,565.61c-2.05-8.51-1.09-19.22-5.27-26.32,7.94-.92,7.81,22.43,5.27,26.32Z"/>
    <path class="cls-7" d="M224.51,566.01c-6.5.27-17.01-26.3-7.97-18.86,1.1,6.73,5.1,11.6,7.97,18.86Z"/>
    <path class="cls-7" d="M312.94,236.14c-17.28,10.27-31,4.21-44.59,14.16,3.12-11.23,23.6-6.75,41.33-16.16,8.93-4.74,19.09-18.87,26.09-22.4,9.74-4.91,19.59-8.53,30.74-9.23-4.2,2.27-8.72,3.68-13.42,4.99-23.41,6.55-25.85,20.12-40.15,28.63Z"/>
    <path class="cls-7" d="M433.24,188.74c-17.24-17.49-34.23,4.54-52.25,4.11l24.33-10.82c12.97-5.77,27.39-2.66,33.99,10.55-3.07.46-4.22-1.96-6.07-3.84Z"/>
    <path class="cls-7" d="M492.02,285.29c-15.53,3.12-31.08,1.85-46.1-3.61l-16.69-6.06c-5.19-1.89-9.87-4.3-15.46-5.22-1.1-.18-1.55-1.79-1.25-1.91.39-.15,1.54-.44,2.2-.22l41.32,13.92c13.54,4.56,36.3-.47,37.27,1.15.36.6-.15,1.72-1.3,1.95Z"/>
    <path class="cls-7" d="M383.81,335.2c-8.33,6.01-19.8,4.2-25.95-4.5,2.7-1,3.83,1.9,6.88,3.07,1.13-2.52.22-5.07-.7-7.58-3.72,2.22-7.47,3.51-11.72,1.4,4.71-.54,9.9-1.21,13.29-5.33-4.48-1.5-6.3,3.2-10.81,2.36,9.68-8.84,23.45-9.87,35.31-4.27,2.29,1.08,4.66,1.6,4.81,4.66-10.32-1.94-15.77-8.38-27.06-4.31,3.67,2.78,8.01-.22,11.25,1.76,3.89,2.38,6.85,4.93,11.84,4.88.93,0,2.06,1.78,2.18,2.52.54,3.28-4.59,1.9-9.33,5.33Z"/>
    <path class="cls-7" d="M397.43,311.39c-1.31,6.96-12.6-5.9-34.77-.15-4.21,1.09-8.38,2.73-12.66,2.13,6.4-7.35,17.76-6.69,21.08-12.74,2.03,1.93,5.03,1.46,7.75,1.63,5.88.35,10.86,3.6,16.4,4.97,2.19.54,2.51,2.53,2.21,4.16Z"/>
    <path class="cls-7" d="M301.65,452.24c-6.61-13.17-1.17-27.25,9.32-36.76l6.28-5.69c5.29-4.79,11.41-9.4,13.5-16.4l4.89-16.36c2.42,9.82-3.49,23.1-10.68,29.76-6.86,6.36-14.22,12.29-19.56,20.1-5.11,7.48-4.01,15.57-3.76,25.34Z"/>
    <path class="cls-7" d="M404.82,417.68c1.93,28.43-2.75,10.23,7,32.21.42.95,3.11.99,2.87,1.69l-1.11,3.34c-2.2,6.64.06,15.92-5.91,21.46-9.77,1.34-3.73,2.2-9.71,8.49-.41-5.63,2.58-9.76,2.82-15.09.61-13.74-15.07-25.86-6.59-40.78,1.23-2.16,1.01-4.35,1.7-6.42l2.91-8.75c4.18,12.87-10.63,18.86-1.3,36.35,8.28,15.51,4.95,16.35,5.85,23.93.53,4.51,13.88-5.75,4.54-24.85-7.31-14.95-5.79-14.48-3.08-31.58Z"/>
    <path class="cls-7" d="M407.74,409.59c16.37-4.79,12.53,3.88,21.62-5.15-.14,2.1.25,4.47-1.33,5.6-6.35,4.52-8.89-1.71-19.1,2-4.02,1.46-9.12.64-11.76-2.7-2.01-2.55,4.26-11.36-1.65-8.26-1.73.91-2.46,3.18-3.06,3.33-.71.18-1.73-.38-1.33-.56.75-.35.37-1.87.6-2.35,2.39-4.86,8.39-4.98,12.84-6.35,4.73-1.45,7.57-.94,12.3.24,1.44.36,3.87-2.32,5.96-1.33,7.13,3.36-.04,4.83,10.78,6.43-2.59,4.55-8.58.51-11.32,1.69-13.55,5.84-1.19-.62-22.53.35-1.2,2.64.21,5.32,1.33,6.13,1.72,1.25,4.33,1.6,6.65.92Z"/>
    <path class="cls-7" d="M439.37,408.34c-1.11,10.13.41,19.24,1.68,29.35-10.79-19.2,3.67-31.93-10.63-50.45-.17-2.19,2.9-2.53,2.12.13,4.86,6.12,7.68,13.2,6.83,20.97Z"/>
    <path class="cls-7" d="M428.99,460.26c-2-8.29-4.12-14.93-9.05-21.19-2.11-2.68-3.32-6.4-2.76-9.99,3.37,11.52,13.74,14.3,11.81,31.18Z"/>
    <path class="cls-7" d="M659.58,651.52v14.47l-25.01-49.09-13.14-28.81c-2.67,11.07-2.57,22.12-3.68,33.44-.87,8.83-.88,17.57.13,26.38.78,10.2,1.08,20.59,6.38,29.37l8.74,14.48h-6.33c-.82-3.42-3.63-5.69-5.58-8.91-8.39-13.87-15.36-28.13-18.93-43.5-1.3.26-2.07.95-2.51.87-.6-.1-.75-1.08-.54-1.44.18-.31,1.55-.68,2.02-1.11-.38-4.4-1.51-8.74-2.64-13.31l-6.12-24.68c-7.18-28.99-19.58-28.7-25.78-50.68-6.25-22.15-14.03-20.72-29.93-43.4-2.52-3.59-6.33-7.38-10.5-8.59,9.88,9.78,12.9,22.52,5.86,33.98s-23.89,19.36-30.28,33.08c-1.09,2.34,3.07,4.25,4.75,4.37,7.38.53,9.25-8.22,14.76-10.76.2,7.09-4.03,13.27-5.27,20.19-.8,4.45-1.18,8.32-2.47,12.61-3.49,11.55-11.79,20.42-23.94,23.18-24.16,5.49-33.88-10.49-35.62-10.07-.91.22-2.98,1.18-3.35,2.37-4.93,16.02-19.66,23.99-35.79,22.93-7.7-.51-14.09-.33-20.91-4.85-3.36-2.23-8.31-2.64-11.71-6.29,3.06-1.27,6.33-3.24,8.97-6.23s3.23-8,.04-11.21c-12.13-12.2-28.55-6.92-37.66-11.13-5.9-2.73-11.24-6.47-18.3-5.53,1.45,2.66,3.58,5,6.1,5.93.86.11,1.76-.72,2.18-.41,5.24,3.91-3.17-.3-2.7,5.47.4,4.89-1.5,9.69-5.65,12.54-7.32,5.04-17.98,5.56-25.11.12-2.68-2.04-4.27-4.07-7.85-4.31-.64-.04-1.29-2.05-.99-2.57.27-.48,1.3-.02,2.8-.37-2.61-6.63-2.39-12.75-2.65-21.54-15.33,6.93-34.49,8.81-45.35-6.48-11.85-16.67-6.31-31.87-26.82-34-6.76-.7-14.39-1.89-19.01-6.94-6.65-7.25-6.88-17.95-.56-25.79-4.55-3.36-21.06-15.69-23.16-7.53-.42,1.62-1.03,4.88,2.56,4.92l.07,8.84c0,1,.34,2.06,1.08,2.6.4.29.9.04,2.02.07.66,5.09.39,9.94,3.01,15.37,1.6-1.77,1.99-3.64,3.17-5.34,2.11,4.95,2.1,14.21,5.72,14.77.81.12,1.66-.86,3.18-1.32,1.29,5.16,2.05,10.13,4.78,14.74.04.83.21,1.79-.27,1.83-3.69.36-3.51-4.9-5.65-8.64-5.97-.6-5.87-4.98-8.3-10.54-.39-.88-2.46.04-3.25-.66-3.43-3.01-2.5-8.22-4.73-11.96l-4.43-7.41c-3.14-5.25-3.33-10.25-1.68-17.43-5.25-2.09-12.78,19.39-13.21,21.52-1.19,5.91-4.06,11.37-8.78,13.14-6.35,2.38-12.3,2.18-17.54-2.68-5.86,4.23-10.47,9-15.8,13.65-.48.42,1.03,2.05,1.65,2.14.85.12,2.25-.25,3.7-1.43.64.51-.05,1.89.53,2.56,9.31,3.15,18.71,4.5,28.18,5.84-.02-1.78-.15-2.69.44-2.97.79-.39,2.15-.57,3.11.03s.54,1.89-.88,3.16c12.25,4.51,17.94,1.99,30.96,11.21,16.45,11.65,24.06,34.29,40.01,47.1,9.54,7.66,18.44,15.23,23.96,26.34,9.03,18.14,18.35,35.7,24.54,54.54h-11.38c-5.2-8.79-9.79-17.77-13.74-27.78-15.92-40.25-31.2-31.31-46.02-54.28l-11.23-17.4c-18.6-28.82-40.9-20.04-60.66-29.83l-13.76-6.82c-5.93,4.45-10.24,9.35-15.58,13.98-2.05,1.77-2.63,5.98.15,7.5,15.74,8.59,16.47-4.27,18.09,3.84,3.56,1.84,7.77.99,11.5,2.48,3.39,1.35,6.66,1.96,10.26.38.93,1.87,1.39,3.67,3.22,4.83,16.93,10.67,17.74,22.63,43.08,32.52,24.86,9.7,40.53,47.51,48.97,70.58h-17.7l-6.07-10.92c-7.97-14.34-19.7-40.78-36.72-46.92-12.93-4.67-22.93-13.01-31.29-23.8-2.1-2.7-5.11-4.97-7.99-4.18-2.39-6.61-9.4-7.23-15.22-5.08-.33-1.34,2.89-2.92,1.38-3.56-2.98-1.14-7.08-3.81-10.33-2.87-3.83,1.11-5.23,6.83-5.95,10.45-2.71,13.69-3.61,27.07-7.19,40.55-3.42,12.87-7.8,24.92-11.84,37.51-1.05,3.25-3.34,5.79-3.98,8.82h-5.23c.15-1.99.64-3.92,1.55-6.22,9.62-24.5,15.74-49.59,20.53-75.48,1.64-8.87,4.77-16.17,10.53-22.97-4.38-3.81-14.94-3.22-16.62-11.2-.87-4.15.46-8.14,3.69-10.88l17.78-15.1c-3.41-3.09-5.86-7.13-2.25-10.66,5.42-5.3,13.67-8.45,18.09-14.47,2.75-3.75,2.46-8.73,7.28-11.92l9.87-6.52c11.69-7.72,4.27-21.34,5.1-28.47,2.33-20.05,21.35-31.97,40.86-28.33,13.83,2.58,19.32,11.98,24.01,9.62,5.05-2.55,5.39-10.96,13.07-19.74,20.06-22.94.75-36.91,15.03-56.35l12.64-17.2c-5.83-1.46-11.27-2.21-16.03-5.47-2.73-1.88-3.05-6.2-1.53-9.15,2.48-4.78,6.64-8.34,10.83-11.64,12.09-9.53-2.67-10.38,13.07-25.48l-6.66-.98c-2.64-.39-1.77-11.13-5.39-11.05-2.7.06-14.41,9.98-22.78-.35-6.3-7.77-4.65-19.12,3.3-25.13,12.24-9.26,2.99-15.82,14.93-33.06,3.6-5.2,7.61-9.48,10.09-15.65,1.4-3.49,4.37-6.95,7.4-8.94,6.68-4.4,9.4-11.17,13.87-17.24,13.05-17.7,35.44-24.25,56.58-19.73,6.74,1.44,20.71,2.77,26.79.56l29.71-10.84c9.17-3.34,17.84-3.1,27.01.14,19.26,6.8,15.39,23.86,25.27,24.12,1.96.05.46,2.7.74,3.58,1.26,3.92,6.31,4.65,9.59,3.63,1.7,2.92,5.19,3.9,8.16,4.9,9.63,3.25,15.33,10.72,14.17,21.04-1.54,13.64-7.05,25.94-15.35,36.76-1,1.3-2.17,5.55-.24,6.11,7.01,2.01,13.9.63,20.94,1.96,5.59,1.05,11.17,4.88,9.09,11.13-2.61,7.84-13.97,6.36-20.94,13.29-5.82,5.79-13.17,9.49-21.27,12.94-.09,7.52,11.05,36.55,16.82,39.88-.39,1.76-.56,4.34.03,6.6,3.07,11.76,2.59,23.6,2.88,35.74.3,12.62,14.41,23.18,12.74,43.56-.54,6.58,2.65,12.13,7.9,15.71,9.05,6.18,14.39,15.77,13.81,26.87-.4,7.6,5.76,6.53,16.72,13.95,5.95,4.03,19.82,27.81,33.47,34.12,13.02,6.02,25.86,11.73,38.28,19.01,2.9,1.7,4.92,5.46,8.23,6.2.79.18,4.62-1,3.23.3l-2.49,2.33c-.15.14,4.34,5.85-.35,14.75,14.58,11.99,15.98,24.24,21.91,33.81.49.79,3.09.65,2.67,1.57-.24.53-1.43,2.09-1.16,2.68,7.05,15.03,14.28,29.66,23.01,43.14ZM279.98,299.17c4.83-9.54,11.41-15.73,17.92-22.61,10.5-11.11,22.95-18.81,36.63-25.9,3.96-2.05,8.83-2.33,13.39-4.02,7.83-2.89,15.59-4.81,23.85-5.86.72-1.64-.13-3.06,1.36-4.37,1.64,1.15.86,2.5,2.14,4.15,2.62-2.45,4.89-1.71,7.62-1.77,14.42-.3,28.49.12,42.5,3.77,16.35,4.26,25.18,12.63,39.76,17.46,7.05-7.42,8.15-16.22,14.5-23.51-.98,8.65-5.27,16.32-9.86,23.86-.86,1.41.39,1.95,1.44,2.21.52.13,1.41,0,2.02-1.03,6.3-10.54,11.2-22.03,12.39-34.28.05-.56-2.09-1.33-2.11-1.76s1.77-1.01,1.66-1.77c-.89-5.99-7.07-10.68-13.18-11.64-15.31-2.39-17.89-13.26-46.4-4.41-18.25,5.66-44.19,15.29-62.83,12.37,7.19-2.07,13.64-3.51,20.77-5.09,13.03-2.88,25.01-7.85,37.73-11.76,2.43-.75,4.75-2.54,6.36-3.33,2.48-.07,5.02.62,7.74-.41,4.11-1.55,8.04,1,12.73-1.41-2.89-1.33-2.83-3.08-3.68-5.58-2.73-8.06-10.28-15.02-18.81-17.07-15.92-3.81-28.1,4.87-41.08,9.84-27.92,10.68-39.5-3-58.11,1.55-.83.2-.97,3.26-2.06,2.63-.43-.25-1.51-2.21-2.2-2.02-11,3.14-22.65,9.99-28.33,20.61-8.63,16.15-13.19,11.66-21.31,25.98,7.15,1.33,32.83-3.96,37.09-8.82-1.31,9.55-25.44,11.84-33.16,12.56-5.94.55-9.32,3.05-12.8,7.79-10.58,14.38-3.31,24.84-14.92,33.42-6.3,4.65-8.1,13.75-2.97,19.88,6.83,8.15,17.06-3.04,22.32.63,3.28,2.29,1.55,8.02,4.52,10.6,2.4,1.38,4.71-4.58,3.09-6.97-2.89-4.27-1.85-8.84-.96-13.97-3.12-2.84-8.85,4.22-15.58,5.74-4.75,1.08-8.41-1.69-8.6-5.94-.18-3.97,1.89-7.41,6.81-7.13-2.23,2.25-5.17,6.13-2.86,8.81,4.69,5.42,15.87-10.25,22.63-4.73,4.13,3.38-2.59,12.98,2.85,13.3ZM327.32,293.02l-13.67,11.18c-13.11,10.72-24.73,37.77-39.42,39.48,18.09-13.08,21.36-28.4,40.63-44.29,9.83-8.11,20.08-15.09,31.92-21.02l-18.39,14.54c1.17.21,3.5,1.65,4.16,1.14,6.81-5.22,6.68-4.84,13.27-7.95,14.95-7.05,30.34-12.04,47.07-12.21,1.74-1.03,1.91-3.86,4.16-4.57,1.22,1.64,1.09,3.38,1.87,4.07,1.33,1.17,3.4.53,5.1.7,39.74,3.95,43.14,20.52,80.21,16.27,6.41-.74,14.19-1.17,16.07-8.8-1.14-1.64-4.21-3.17-6.33-3.33-10.73-.78-20.47-3.28-30.86-5.72-10.54-2.48-20.02-6.91-29.49-12.01-6.04-3.25-12.19-5.02-18.39-7.44-7.02-2.74-14.04-3.57-21.5-4.49-10.02-1.23-19.37.92-28.77,4.51l-16.53,6.31c-9.72,3.71-19.44,7.62-27.54,14.27-2.51,2.06-4.52,3.86-7.32,5.7-4.3,2.83-20.35,19.35-22.21,25.13-.23,1.59,1.58,4.08-1.31,6.1l-13.17,9.17c-7.86,5.47-2.27,12.65-4.99,16.15-6.23,8.01-18.41,14.79-15.86,20.32.72,1.57,12.44,7.07,17.03,5.72,2.45-.72,3.62-4.36,5.28-5.81-2.57-2.09-4.57,1.17-6.24.79-3.65-.85-7.6.12-10.64-3.5,13.42-.67,25.97-5.22,33.33-15.79-1.27-.98-2.81-3.29-1.42-3.15l3.67.36c.81.08,1.62-1.27,2.39-2.35,9.99-13.92,17.92-25.15,30.77-36.85-.53-.77-2.2-3.21-2.88-2.65ZM375.75,409.29c-.54-2.1.24-4.47-2.25-5.97l-2.48,17.15c-1.53,10.6-18.41,17.9-10.87,36.27,5.75,14,16.19,13.56,8.63,42.94-1.57-3.71-.09-6.98.46-10.43,1.36-8.52-.5-17.49-8.04-22.84.93,7.85,3.88,14.33.57,21.45-.72-11.04-3.68-21.16-9.17-30.78-14.9-26.1,23.82-31.99,6.31-52.48-2.92,4.37-1.37,8.01-3.07,11.46l-9.79,19.86c-7.88,15.99,6.33,26.65,10.62,41.24.46,1.48-.44,2.48-1.7,1.23-4.84-14.21-15.95-21.05-13.78-35.28,2.96-19.42,15.77-25.01,13.2-44.9-.68-5.31-.52-10.58-2.19-15.9-1.63-5.22-.33-10.62-.91-15.57-3.11,1.3-1.73,23.43-4.96,26.33-1.87-4.52,1.87-8.71-1.48-11.93-3.48,8.37-3.8,17.89-12.06,23.51,4.68-12.29,11.91-23.37,6.05-38l-7.36-18.4c-1.91-4.78-1.61-10.59,2.84-14.3.73,4.61.94,8.14,3.12,11.89l4.73,8.16c2.24,3.87,3.75,7.24,5.52,12.26,3.13-4.79,2.61-9.91,4.05-15.61,7.18,12.22-.54,21.14,5.47,36.74,1.69,4.39,3.31,8.45,6.09,13.1,8.61-16.16,20.22-13.45,34.07-21.36-9.05-11.09,2.48-12.14,1.06-18.8,3.08.21,4.86,1.28,7.46,1.88-3.41,1.94-8.19,3.9-9.01,8.65-.69,3.97,4.42,8.71,7.93,7.09-.98-.97-3.46-3.87-1.59-4.82,6.8-3.46,13.65.38,18.56,5.21,1.65,1.62,4.3,1.63,6.19,1.57.7-.02,8.32-6.32,8.18-8.8-.56-10.18-10.92-10.42-6.97-24.23,1.17-4.11-.41-8.31-2.26-11.86l-4.04-7.74c-2.4-4.61-.94-7.86,1.31-11.8,1.49-2.61,1.4-5.49,4.95-6.8,7.57-2.8,16.73-3.03,23.82,2.82-10.13,4.46-23.35-2.24-28.58,10.05,8.89-1.9,16.93-.76,24.64,2.73l-11.36.72c-.44,2.34-1.91,4.17-1.44,6.35,3.19-1.06,4.1-4.25,7.07-4.39-.83,6.14-6.16,7.03-10.91,8.14,1.44,2.07,3.9,1.97,6.35,3.31-1.74,1.22-3.79.46-6.15,1.6-.21,4.14-.31,8.07-.93,12.05-1.32,8.5,14.48,13.2,4.17,27.47,8.33,8.09,7.27,12.38,16.46,18.2,2.37,1.5,3.71,4.64,6.94,4.61,1.85-5.46.52-10.86-1.12-16.15-3.87-12.46-6.53-25-2.86-38.08,2.52,3.78,1.51,7.8,4.46,10.91,4.41-3.31-2.76-15.37-3.39-20.35-1.4-11.05,2.11-32.83.28-42.28-.64-3.34-5.77-3.08-8.05-4.19-18.3-8.87-46.62-17.54-66.22-12.47-1.64.42-2.34.62-4.23.81-14.81,1.47-28.49,8.31-40.98,16.4-.87.56.8,1.8,1.14,2.05-2.47.73-3.11,2.4-3.69,4.66-.43,1.68-2.24-.98-3.12-1.12-5.07-.82-4.21,12.27-6.69,14.25-2.62-16.48-7.41,9.22-5.91,11.52l6.45-9.15c-.61,4.95-3.8,9.57-4.78,15.01-3.89,21.72,8.99,21.73.16,46.77-3.27,9.28-9.76,16.17-14.36,25.66,5.95-3.19,9.68-8.36,13.57-12.91,12.23-14.32,7.8-31.07,3.87-47.46-3.59-14.97,11.98-23.83,9.34-41.66,5.1,7.62,1.56,15.31-2.02,22.23-7.8,15.08-4.95,19.19.83,33.4,1.95,4.79,5.15,8.77,4.96,14.02-2.05-1.29-1.96-3.84-4.76-5.05-2.39,3.86-.77,8.12-2.06,12.27-10.34,33.42-47.09,31.93-30.81,75.21.9.46,2.66-.43,3.06.36.34.69,1.12,2.56,1.78,2.58,4.52.14-1.69-12.14,7.83-28.63,4.76-8.25,10.98-15.59,17.63-22.53,1.57,3.34-2.26,5.09-2.99,7.62-.91,3.15-2.42,3.77-4.29,5.78-6.97,7.48-12.26,16.84-13.06,26.98-.86,10.89.29,21.42,6.5,30.29-3.28-16.18-6.22-33.08,2.8-46.42l13.48-19.95c6.45-9.54,7.37,3.34,12.36-15.73,6.37,1.14-10.7,27.67-13.18,32.92-15.23,32.22,1.54,43.36,4.89,51.48l3.33,8.07c1.89,4.59,2.11,9.81,6.51,13.58-.34-19.89-16.49-34.26-16.41-54.12.04-8.62,3.46-16.66,8.17-23.84,5.79-8.82,9.61-17.87,14.24-27.2-2.75,27.16-30.07,36.33-16.25,66.65l8.39,18.41c10.76,23.62,4.58,47.84-8.85,68.81-5.99,9.35,7,33.03,18.88,32.41-4.93-7.02-10.53-12.32-12.2-20.23-4.58-21.61,14.36-29.5,12.33-55.5-.38-4.92.68-10.27-1.7-14.74-1.1-2.07-1.75-3.14-1.25-5.71.44-2.25-2.52-4.55-.31-7.13,16.79,39.98-4.34,54.79-7.49,72.27-1.23,6.82.76,14.23,6.32,19.37-3.14-12.51-2.2-23.24,3.24-34.03,1.36-2.69,1.4-5.8,3.2-8.56,6.63-10.21,3.37-28.81,2.55-39.31,5.83,5.1,4.58,21.12,4.67,28.94,2.97-3.73,1.82-8.1,3.56-12.66,2.41,1.32.24,4.1,1.6,4.48,8.03,2.29-.19-3.76,3.77-18.2,2.16-7.89,5.42-15.89,4.33-24.42-1.19-9.38-17.92-18.8-7.47-35.01,6.01-9.32,9.36-13.68,6.58-24.44ZM310.28,336.33c1.39,9.62-2.46,9.94.02,19.59.69-3.43.65-6.2,1.34-9.39l4.42-20.49c.35-1.64.2-3.19-.7-4.91-10.37,7.55-11.57,26.16-13.42,28.97l-17.68,26.88c12.16-7.18,21.72-31.28,26.02-40.64ZM514.59,509.09c4.04,11.25,5,22.24-4.15,31.18l1.95,3.92c9.8-6.35,7.19-11.47,8.05-22.6,3.64,4.01.1,8.46,2.64,13.12,8.34-6.83,12.19-20.2,5.25-28.52l-7.84-9.4c-.52-.62-2.83-1.57-2.83-.31,0,7.72,4.45,13.46,8.47,20.06-4.73-1.68-6.9-6.11-9.05-10.14-8.87-16.62-1.32-31.74-9.08-42.46-2.79-3.86-6.89-6.41-10.39-9.55-13.47-12.08-.47-21.76-14.81-45.39-9.15-15.09-2.41-26.32-5.89-38.04-.73-2.48-.14-3.66-.4-6.07-1.33-12.13-7.86-22.49-12.79-32.87-.58,6.24,2.8,10.92,4.53,16.49,2.95,9.49,6.02,19.03,5.21,29.1-.83,10.34-1.9,20.38,2.17,30.27,3.11,7.54,8.88,15.74,8.55,24.16-1.08,27.88,21.25,20.42,24.04,46.81-1.63-.35-2.56-2.26-3.14-3.84-2.59-7.07-7.09-11.75-12.89-16.44-17.75-14.33-4.76-24.31-18.2-46.77-3.39-5.66-4.35-12.66-4.24-19.26l.39-22.2c.08-4.86-6.02-31.82-11.48-31.18,16.77,32.63-1.29,34,11.94,77.49,3.71,12.2,7.55,23.57,9.05,36.38.93,7.92,5.76,15.15,11.88,20.21,11.73,9.72,17.89,21.46,23.06,35.85ZM263.75,417.38l2.34-8.56c3.15-11.55,5.41-21.9,13.03-31.22,2.95-3.61,26.71-33.86,20.98-36.71-1.35,2.4-5.2,3.62-6.15,6.19-3.58,10.75-9.09,19.62-16.65,27.89-13.73,14.99-17.36,21.56-13.54,42.41ZM299.23,492.96c-7.25,19.76-9.11,36.63,10.89,47.81,7.23-19.14-14.04-18.93-5.03-43.08,4.52-12.1,1.59-25.06-3.08-36.56-.45-1.11-.72-2.34-1.48-2.84-.52-.34-1.91.11-2.59-.22-6.87-11.75-6.69-24.34-2.99-37.02,4.63-15.86,15.65-23.78,23.22-41.27,2.63-6.07,4.26-12.26,2.5-18.8-1.51-5.61-1.94-11.2-4.96-17.02-5.03,14.95,1.66,30.13-9.21,43.43-6.51,7.97-9.91,17.33-16.02,26.62.65-10.43,7.03-18.88,12.71-27.23,4.34-6.38,10.22-21.02,5.85-29.27-6.2,30.74-17.38,21.06-21.83,48.56-2.28,14.1-11.08,29.18-9.1,41.75,2.56,16.32,15.49,25.97,15.46,43.65,2.33.69,4.27-.43,5.64,1.5ZM255.31,428.2c12.74-20.73-6.13-22.49,13.29-47.32,7.42-9.49,16.14-17.37,20.78-29.82-4.22,1.13-6.74,5.35-9.35,8.73l-14.29,18.55c-3.61,4.69-9.48,9.95-9.63,16.06l-.8,33.8ZM277.16,522.19c1.92-8.27,1.53-16.95,7.44-24.17-18.9,63.2,22.1,60.77,20.83,83.55-.47,8.41-.85,17.79,8.3,22.67-4.97-10.29-5.82-25.49-8.66-33.36-4.94-13.69-25.7-25.72-21.57-51.36,2.31-14.37,12.44-28.69,3.13-43.16-1.38-2.14-2.03-3.82-3.14-6.02l-5.94-11.76c-8.84-17.48,3.4-35.08,6.12-50.71,4.64-26.7,13.21-22.48,18.05-37.69,1.11-3.48,4.91-6.25,2.51-10.93-4.28,8.47-10.03,14.8-16.21,21.39-9.08,9.68-6.07,20.76-5.12,20.14l-2.19,1.43c-.24.16-14.61,44.22-7.13,59.96,2.94,6.18,6.01,12.65,7.15,19.5.06.38-.16,16.22-3.27,15.64.24-3.72.79-6.26-.99-9.03-2.73,9.29-4.42,18.5-6.62,28.2-1.9,8.37-.56,16.49,4.15,23.75,1.75,2.71,4.3,5.32,4.07,8.49-2.2-.54-2.92-2.23-4.38-2.07-.75.08-2.19.19-2.55,1.74,6.69,3.35,11.89,8.66,14.91,15.13,2.48,5.32,1.32,10.53-2.42,14.98,3.06,1.11,5.21-.87,5.98-3.4l3.19-10.45c-11.18-8.91-18.5-30-15.62-42.45ZM389.36,516.92c4.95,8.68,4.14,17.89,12.7,26.13,16.28,15.67,44.98,15.09,43.73,56.76,3.43-10.24,3.24-21.83-2.86-31.29-11.28-17.51-32.86-17.22-45.79-39.16-4.24-7.2-6.09-14.53-5.51-22.96.33-4.79-.4-10.07,3.68-13.37l-.22,8.5c1.84.05,3.11-.03,3.53-.49.35-.39,0-1.62.01-2.39.07-7.11,4.6-11.67,8.66-16.61l10.27-12.48c4.41-5.36,5.81-13.37,1.18-18.48-2.16-.94-.75-2.66,1.21-1.68,5.96,5.82,5.68,15.83.45,22.48l-14.71,18.7c-2.41,3.07-4.79,6.13-3.23,10.33.92,2.49,2.8,5.89,6.32,6.88,3.97,1.12,7.34,3.12,11.05,4.73,14.72,6.42,14.05,16.75,18.5,28.86.89-8.57,1.65-16.59,7.76-22.48,9.25-8.92,16.69-18.9,21.66-31.25.65,1.73,2.11,1.46,4.32,3.06-3.02,1.25-4.39,2.19-5.27,4.68-7.53,21.15-22.42,24.98-23.74,36.65-.95,8.46-.58,17.27,5.37,23.7,4.56-31.23,40.94-45.64,22.15-79.23l-5.7-10.19c-16.07-28.74,0-31.31-12.19-39.02,1.9-2.25,2.86-.73,4.14.94,3.14,0-2.72-22.13-3.32-23.73-1.3-3.49-5.71-5.82-9.11-7.37.63,7.46,1.95,13.89,1.47,21.13-.36,5.39.77,10.58.73,15.86-.09,9.68,1.27,18.77,6.04,27.35,7.32,13.17,11.8,30.86.81,43.24l-11.6,13.06c-2.08,2.34-2.52,5.54-5.69,6.82,1.87-16.04-13.11-14.64-17.5-22.83-2.98-5.57.15-12.11,3.49-16.7l7.12-9.77c6.91-9.48,5.99-19.98.06-29.73-5.35-8.79-8.85-18.53-8.18-28.78,3.03,1.39.73,4.68,3.39,5.62,1.65-2.03-1.27-3.9,1.56-5.77.61,8.21,5.8,13.54,9.75,19.88,4.79,7.71,8.79,16.17,9.09,25.2.1,3.2,2.54,4.16,3.19,6.2,2.99,9.39,1.87,19.73-1.54,28.92-2.09,5.64-4.87,10.36-6.35,16.53,3.35-.44,3.95-3.4,5.9-5.41,15.6-16.07,13.42-26.08,4.44-43.94-11.36-22.58-5.3-39.82-8.49-64.66-.72-5.64-3.77-19.71-10.55-17.64-1.8.55-3.92,1.34-4.07,3.5-.21,3.08,3.07,4.8,1.45,7.92-2.23-.87-2.94-13.78-6.67-8.83-.09,2.38,1.6,4.43.07,6.02l-2.37-4.82c-1.42,2.54-3.38,2.85-4.84,4.68-1.23-4.55.75-7.44-.81-10.88l-3.13,8.2c.25-2.41.9-4.47-.38-7.11-4.67,1.16-8.76,1.25-13.34.21-.1,2.5,1.67,1.83,2.59,3.05l-8.55,12.3,4.18-12.39c-21.29,26.16.58,30.29-13.07,50.33-5.08,7.46-3.82,16.63,1.78,23.49,5.88,7.2,7.42,14.78,5.36,24.8,9.5-6.49-.21-22.19-3.51-29.23-8.54-18.18,7.79-21.43,5.35-46.2,3.28,8.1,2.5,16.65-2.05,24.05-10.05,16.34,6.02,26.31,6.7,41,.7,15.07-15.44,20.5-9.76,37.97-4.36-3.2-2.24-8.65-3.06-13.84-2.31.52-1.38,3.04-3.67,5.18-1.34-13.56,16.57-24.25,4.43-39.35-11.34-14.11-8.01-22.06-.7-36.48,5.62-11.07-6.3-15.77,5.21-36.24-3.67-.68-4.55,2.93-6.03,5.16-10.45,15.83,2.64,20.83-7.2,35.41-2.98,4.41-6.83,9.75-6.82,15.31,0,6.78,5.5,11.34,8.61,16.57,5.66,9.51,1.87,20.06-1.67,29.79-5.46,15.02,3.03,24.23-7.73,21.25-1.35,13.71-6.76,26.35-10.53,39.78-3.9,13.87,11.51,31.48,25.27,32.4-6.57-6.4-13.86-9.9-17.06-17.7-3.62-8.83-3.67-17.93-1.02-27l5.23-17.88c1.46.78,2.79,2.84,3.65,1.75,2.24-2.82.34-6.25,1.18-9.75,5.3,6.36-2.64,21.06-3.96,31.79-1.41,11.53,3.97,21.44,14.12,26.51,10.65,5.32,26.18,9.86,26.38,24.67.15,11.44-6.14,17.66-16.38,22.18,10.81,1.05,18.34-7.37,21.48-16.52,3.34-9.7,1.48-18.69-6.85-24.7l-21.72-15.69c-19.06-13.76-5.2-50.65-8.01-50.86,1.06.08,1.24-1,2.98-1.2l-.83,20.14c2.62-.95.59-3.39,1.78-5.32,3.53,6.16-.87,20.42,6.55,27.71,16.72,16.43,33.59,13.92,38.08,36,1.86,9.17.82,17.48-2.95,27.01,9.82-6.18,10.65-18.09,9.04-28.33-1.53-9.71-8.57-16.09-16.98-20.41-3.62-1.86-23.65-14.54-20.88-21.84,3.89,5.51,9.73,9.12,15.38,13.71,12.16,9.88,15.34,5.07,24.08,22.01,2.86,5.54,1.95,11.54,4.22,17.89,4.97-15.34-2.63-29.95-16.32-38.46-19.21-11.93-31.89-12.17-34.46-43.56ZM266.93,419.67c5.76-4.73,8.03-11.41,9.27-18.47l3.18-18.11c-5.29,4.56-8.04,10.3-9.12,16.75l-3.33,19.83ZM372.36,396.43c1.44,2.53.25,4.1.66,5.51.22.78,2.46,1.39,2.91.43l6.22-13.09c-9.66,2.54-17.31,10.08-17.13,20.06.08,4.51,1.04,8.67.29,13.39,6.32,1.98,3.69-23.16,7.06-26.31ZM473.09,464.28c-4.63-8.11-5.37-34.08-7.61-28.7.24-.58,1.02-1.18,1.44-1.49,4.15-3.03.84,22.49,13.94,37.92l10.06,11.86c10.1,11.91,10.76,24.6,2.39,37.87l-18.37,29.12c-6,9.52-8.3,20.43-5.48,31.62.97,3.84,4.24,7.43,6.95,10.15.62.62,2.78-.05,3.23.52.28.36.26,1.05.59,1.94,4.08,3.92,23.56-3.87,23.77-8.6-5.47-.56-9,1.13-13.13.42-8.2-1.41-14-7.25-12.7-15.68,1.03-6.69,4.28-12.67,8.22-18.11l11.68-16.12c12.47-17.2,6.55-24.97,7.71-26.14.21-.21,1.29.51,2.14.21,2.17,9.01-.55,18.3-5.9,26.27l-12.76,19.02c-3.38,5.03-7,10.11-7.28,16.56-.26,5.98,5.31,10.3,11.06,9.69,3.71-.4,6.96-.28,10.1-1.44-5.57-.75-10.77-1.75-13.94-6.32-4.92-7.09,4.84-19.67,9.86-24.84,4.53-4.67,7.96-9.84,11.94-15.07-.55-1.5-2.35-1.64-2.08-3.64,1.72.07,3.03.44,4.19-.34.69-.46.82-1.6,1.11-2.67,1.96-7.13-1.01-13.04-3.23-19.48-2.91-8.41-5.58-16.67-11.92-23.17-6.04-6.2-12.38-12.01-17.36-19.07-4.29-6.08-3.6-13.48-5.53-20.34l-6.51-23.16c-2.19-7.78-4.69-14.87-5.55-23.78-3.17,1.49-3.32,5.01-2.51,7.55l4.99,15.6c.59,1.86.92,4.4-.2,6.35-2.43-4.61-2.2-9.27-6.84-12.85.45,9.18.67,17.84.58,27.15-.25,26.53,34.91,36.94,8.34,79.49-2.67,4.27-5.68,7.98-7.89,12.4,1.78,1.12,4.28,1.82,3.95,3.83-.18,1.13-1.71,1.25-2.11.79s-1.64-3.4-2.12-2.95c-9.09,8.49-10.51,22.34-6.83,33.72,1.74,5.39,2.39,9.81,1.57,15.38-.93,6.3.69,13.58,5.36,17.61,6.45,5.57,14.14,8.46,22.21,6.61-5.86-2.87-11.16-3.26-15.53-7.32-5.91-5.49-8.9-13.17-9.96-21.48-2.04-16.07,3.75-31.27,12.75-44.57,4.62-6.83,8.96-13.63,11.3-21.58,2.04-6.93.14-13.97,3.17-21.15,1.62,19.23.02,25.93-10.2,41.42-7.42,11.24-13.79,22.68-14.37,36.54-.39,9.23.94,19.41,7.11,25.97,5.91,6.3,13.89,9.29,22.38,7.93,6.63-1.06,14.63-6.38,17.13-14.37-7.24,2.17-12.3,6.95-19.32,7.6-9.33.86-16.65-5.19-19.9-13.97-3.31-8.96-2.41-19.24,1.19-28.2,1.5-3.73,3.66-7.17,4.88-10.79.23-.68-2.05-1.03-1.8-1.48,1.03-1.82,2.84-.64,3.17-1.12l13.86-19.97c4.06-5.85,7.38-12.54,7.37-20.02,0-8.5-5.09-16.92-12-21.27-2.3-1.45-1.54-1.82-2.87-4.13l-7.85-13.75ZM265.36,543.88c-1.65-5.86-5.77-9.78-6.84-15.57-1.76-9.47.03-19.34,5.22-27.41-.84,6.49-4.13,11.14-3.25,17.51-.38,8.53,2.16,18.53,10.16,22.88-4.01-10.03-6.4-17.57-3.96-26.85l6.58-25.04c.86-3.25-.07-6.38.37-9.96.84.05,2,1.73,2.59.78.73-7.92-4.84-13.17-6.75-19.49-3.87-12.76.09-25.49,2.8-38.83-12.03,9.03-14.37,18.25-10.59,31.69,2.87-7.43-1.69-14.23,3.6-19.86-.94,7.96-.79,14.53,1.16,21.77l4.56,16.93c2.97,11.02-4.84,24.68-12.12,31.79-6.73,6.58-12.62,15.25-7.85,25.15,3.76-3.47-.57-6.57,1.78-10.15,1.18,4.28,1.91,9,4.17,13.19,4.19,7.75-2.87,6.14,8.37,11.47ZM341.38,511.69c-3.12-10.98-8.51-20.81-14.77-30.52,2.96-.78,3.49,2.28,5.83,2.43.49-1.73-.52-3.63-1.55-4.93-7.1-8.97-9.49-19.32-8.57-30.77.75-9.41,5.95-16.88,8.85-26.44-12.17,9.71-15.9,24.91-15.1,39.47,1.61,29.41,22.25,37.23,22.19,63.49-.03,13.02-14.53,23.53-9.02,36.26,2.66-18.55,18.48-26.63,12.13-49ZM435.37,509.53c-.87-11.64-.31-21,4.01-30.38,8.25-17.94.14-31.3-8.85-45.82-.68-1.1-1.53-1.98-2.59-1.27-4.92,3.31,19.54,22.18,3.76,44.92l-10.14,14.61c-5.91,8.51,7.1,14.92,13.81,17.94ZM224.21,486.34c-10.53-2.51-21.49-13.05-31.71-6.02-3.18,2.19-7.28,5.89-7.77,11.01,8.63-.98,11.24-10.93,25.26-5.69,2.93,1.09,12.97,3.07,7.51,5.61,13.3,5.35,32.71-5.28,33.88-16.72l2.05-20.18c2.88,15.15,1.73,30.97-13.75,38.49-7.73,3.76-16.18,3.13-25.83,3.62,12.35,10.55,31.63.09,39.47-11.77,1.35-2.04,3.23-2.38,4.51-3.74,6.67-7.1.65-19.21-.46-27.78-.12-.9-.82-1.69-1.5-1.9-.45-.14-1,.08-1.92.08-1.59-6.93,5.44-14.9,2.82-18.28-6.27,9.26-10.3,18.86-14.7,28.47-3.89,8.49-11.4,12.44-20.38,9.75-5.72-1.72-9.83-5.97-15.26-8.13-11.9-4.73-26.75.31-30.51,12.58-1.78,5.82-.29,11.9-.8,17.93,2.25-3.77,2.13-7.91,3.05-12.25,1.94-9.06,10.23-14.31,19.68-13.92,12.78.52,22.52,13.81,36.57,7.29,3.27-1.52,5.8-4.63,8.9-5.39-4.24,8.46-16.34,11.95-22.91,9.21l-18.91-7.88c-6.57-2.74-15.53.12-18.98,6.61-2.59,4.87-3.13,10.64-3.41,16.14,3.95-2.74,3.33-7.21,5.52-10.2,6.07-8.31,16.65-10.27,25.74-5.99,13.9,6.54,18.67,9.83,30.65.06.73-.6,1.51-1.2,2.35-.78,2.5,1.24-7.88,12.45-19.16,9.76ZM173.35,473.25c1.06-10.21,14.46-15.42,24.45-14.3l16.58,1.85c-4.25,6.11,16.89,12.26,22.26,4.03,4.4-6.75,8.9-13.69,11.26-22.64-7.31,1.98-9.93,17.54-14.86,20.02-5.41,2.72-10.51.19-14.94-2.97-13.48-9.61-32.31-8.86-42.92,4.89-8.79,11.4-7.6,13.05-4.02,30.25l2.2-21.12ZM251.61,539.14c-6.61-9.24-7.99-21.02-.57-30.21l12.34-15.29c6.44-7.98,7.29-18.2,2.09-26.91-.32,5.04-3.4,12.6.77,13.62-7.27-.16-2.4,10.42-8.57,16.56-1.18-.48-2.01-1.53-2.49-1-.81.9-2.03,1.34-2.52,2.33-5.54,11.27-14.74,31.28-1.05,40.89ZM439,507.36c6.68-12.63,10.27-26.32,8.07-39.56-4.27,5.85-3.75,11.83-6.67,17.16-1.55,7.18-5.11,14.73-1.4,22.4ZM323.22,570.09c.35,4.21,7.91,8.01,11.48,7.93-3.76-6.56-8.65-11.91-9.2-19.52-.4-5.59.76-12.04,3.72-17.12,14.71-25.24-1.47-39.41-13.2-60.95-.24,4.52,1.8,8.27,3.54,12.04,4.58,9.9,7.77,19.59,9.34,30.41.21,1.41,3.35,3.75,1.94,5.71-.81,1.11-3.31,1.31-3.44,4.16-.34,7.09-6.09,14.06-5.51,21.14l1.33,16.19ZM319.37,549.54l5.58-16.49c3.64-14.93-7.01-38.24-14.08-51.96-.64,11.14,3.65,20.75,7.61,30.23,9.98,23.82-8.96,35.59.88,38.23ZM304.63,546.69c14.67,12.89,8.09,23.15,10.71,36.17-.13-8.67,8.16-20.06,2.02-28.26-11.04-14.74-23.05-18.42-24.6-29.73-2.34-17.13,4.55-27.67,2.22-30.8-.28-.38-1.59-.11-1.86.82l-5.71,19.41c-2.55,8.67-2.65,18.39,1.61,26.56,6.14,11.79,17.51,19.6,21.48,36.53,9.54-24.78-15.54-27.21-18.92-44.83,5.28,4.03,8.09,9.77,13.06,14.13ZM316.61,533.66c3.31-6.54,2-13.35-.46-19.51l-6.54-16.39c-6.55,9.08-1.78,19.54,4.54,26.76,1.28,2.68-.27,7.02,2.46,9.14ZM429.88,540.57c-3.37-8.83-21.24-10.51-22.49-24.81,4.32,4.23,6.05,9.1,11.6,11.22,1.72-2.59-1.36-3.4-2.17-5.82,5.24,1.9,7.97,6.25,12.8,9.56-.26-16.16-27.8-16.19-30.64-28.31-1.08.74-3.79.83-4.44,1.86-1.23,18.57,9.57,33.07,25.01,42.29l10.48,6.26c9.9,5.92,16.63,14.64,20.07,26.12,1.39-11.15-4.1-21.74-14.05-27.47-4.94-2.85-9.46-5.71-14.61-8.29-11-5.51-19.96-15.64-20.97-28.16.31-2.18,3.16-2.41,2.07.12,5.12,11.13,14.97,22.28,27.34,25.42ZM230.72,532.07c-1.34-8.36-.15-14.72,2.01-22.03.4-1.36-4.15-1.67-5.42-.67-2.03,1.6-6.57,17.33,3.42,22.7ZM603.87,605.1l.06-14.32c.04-9.58,4.26-19.22,3.36-29.05-.62-7.04-29.49-23.1-37.3-25.13,1.72,8.76,3.49,16.83,8.05,23.39l12.21,17.58c6.25,9,9.61,30.84,12.32,29.68.39-.17,1.29-.71,1.29-2.16ZM260.17,546.02c-1.69-.75-2.41-3.97-5.11-2.63,6.88,11.38,31.66,13.86,20.56,34.52,4.55.83,6.97-3.17,8.21-6.02,4.23-9.74-17.07-22.96-23.66-25.87ZM502.89,571.27c-4.71-1.71-6.22-6.02-4.42-10.29,4.22-10.04,14.12-15.58,12.03-16.89-.78-.49-.89-1.61-1.77-.67-.33.35-.76.66-1.24,1.25l-13.37,16.43c-2.55,3.13-4.84,7.45-2.97,11.45,1.74,3.71,5.92,5.06,9.37,4.88s7.01-1.07,8.68-4.42c-1.94-1.09-4.08-.93-6.3-1.73ZM269.45,576.9c3.33-.92,5.46-3.42,6.02-5.67,1.93-7.85-8-14.68-14.32-18.31-3.64-2.09-6.27-5.02-10.17-6.49,5.68,7.66,16.85,14.61,19.25,22.85.81,2.76-2.11,3.55-4.45,4.74-1.48.75,1.34,3.52,3.67,2.87ZM395.41,585.42c9.66-.24,11.31,16.32,6.22,24.68,5.16-1.23,6.84-6.68,7.39-10.34,1.4-9.34-8.78-17.94-13.98-19.35-3.15-.85-5.63-3.04-8.58-4.18-12.73-4.89-20.04-16.38-19.53-30.27-3.22,16.31,3.73,26.81,17.53,34.63.74-.7.85-1.62,1.17-1.82.42-.26,1.62.03,1.43.84-.26,1.12-.9,1.86-.62,2.41,1.57,3.09,16.14,5.18,12.14,27.05,7.53-7.18,4.4-17.34-3.17-23.67ZM420.74,599.68c-1.25,8.02-5.46,14.34-11.31,20.08,8.46.4,13.97-6.67,15.84-14.18,4.48-17.92-3.74-32.53-20.96-39.06-.24,2.76,1.94,3.46,3.54,4.57,5.71,3.96,11.29,9.1,12.99,16.09.63,2.58-.5,5.56,2.8,6.97-2.24.89-2.48,2.79-2.91,5.53ZM333.4,581.83c-4.63-1.87-7.77-4.19-12.11-7.91-1.95,4.39-3.02,9.02-1.38,13.24,1.11,2.86,3.8,4.59,6.25,4.55,6.16-.1,5.67-5.99,7.24-9.88Z"/>
    <path class="cls-7" d="M301.84,487.02c-4.3-8.2-7.12-14.75-11.39-21.39-7.87-12.25-7.86-30.89-2.14-43.98-.75,20.8-4.47,24.72,6.55,44.06,4.26,6.46,8.51,13.54,6.97,21.31Z"/>
  </g>
  <path class="cls-25" d="M619.08,629.5l1.97-.42v-9.15c6.68,3.59,26.54,2.7,28.16,2.49,1.63-.21,2.77-.36,2.77-.36v64.09c12.51-2.23,63.71-13.45,96.95-52.23l-26.03-19.68c26.03-38.09,26.03-66.02,26.03-66.02-38.09,44.44-99.78,52.69-99.78,52.69,0,0-25.6,2.86-29.73,14.28-.32.88-.39,1.62-.29,2.28l-.06-.06v12.08Z"/>
  <path class="cls-25" d="M374.47,733.21c189.19,0,275.56-24.68,275.56-24.68v-85.23s-86.37,24.68-275.56,24.68-275.56-24.68-275.56-24.68v85.23s86.37,24.68,275.56,24.68Z"/>
  <path class="cls-25" d="M129.86,629.5l-1.97-.42v-9.15c-6.68,3.59-26.54,2.7-28.16,2.49-1.63-.21-2.77-.36-2.77-.36v64.09c-12.51-2.23-63.71-13.45-96.95-52.23l26.03-19.68C0,576.15,0,548.22,0,548.22c38.09,44.44,99.78,52.69,99.78,52.69,0,0,25.6,2.86,29.73,14.28.32.88.39,1.62.29,2.28l.06-.06v12.08Z"/>
  <g>
    <path class="cls-7" d="M259.94,681.71l-.3-25.11c0-2.98,3.97-3.18,6.15-2.68,3.57.5,6.95-.2,10.02-.3,13.1-.5,20.44,16.67,11.41,26.5-3.27,3.57-9.83,5.56-14.09,4.37-1.49-.4-2.78-.79-2.98-.79-.1,0-.2,8.44-.1,18.66.1,14.09-.1,19.05-.89,20.05-1.49,1.79-5.56,1.59-6.65-.5-1.69-3.08-2.38-14.29-2.58-40.19ZM269.17,668.61c0,5.26.3,10.12.7,10.72.99,1.49,4.47,2.68,6.85,2.18,1.09-.2,3.08-1.49,4.27-2.78,6.05-6.65,2.18-22.53-5.56-22.53-1.39,0-3.37.6-4.37,1.29-1.79,1.29-1.89,1.98-1.89,11.12Z"/>
    <path class="cls-7" d="M292.89,674.96c0-16.38-.1-18.46,1.29-20.25.89-.99,2.18-1.49,3.97-.69,1.79.79,2.08,1.59,2.58,7.05.6,7.44.79,60.24.2,61.33-.99,1.49-4.66,1.59-6.05.2-1.29-1.29-.99-3.77-1.39-15.48-.3-7.74-.6-22.13-.6-32.15Z"/>
    <path class="cls-7" d="M335.07,664.54c-.79,2.48-5.16,12.21-9.63,21.64-6.45,13.5-14.59,32.25-14.59,33.44,0,.2,4.96.1,11.12-.1,9.43-.2,11.21-.1,12.11,1.09.7.69.89,1.59.6,1.99-.4.3-7.05.69-14.89.79-10.72.2-14.59,0-15.38-.79-1.69-1.69-1.19-6.75,1.39-14.09,2.28-6.25,12.7-29.38,19.05-41.98,4.57-9.23,5.16-8.53-7.25-8.83-7.44-.2-11.12-.6-11.91-1.29-1.99-2.08,1.19-2.68,14.39-2.68,17.37,0,18.46.79,14.99,10.82Z"/>
    <path class="cls-7" d="M367.62,664.54c-.79,2.48-5.16,12.21-9.63,21.64-6.45,13.5-14.59,32.25-14.59,33.44,0,.2,4.96.1,11.12-.1,9.43-.2,11.21-.1,12.11,1.09.7.69.89,1.59.6,1.99-.4.3-7.05.69-14.89.79-10.72.2-14.59,0-15.38-.79-1.69-1.69-1.19-6.75,1.39-14.09,2.28-6.25,12.7-29.38,19.05-41.98,4.57-9.23,5.16-8.53-7.25-8.83-7.44-.2-11.12-.6-11.91-1.29-1.99-2.08,1.19-2.68,14.39-2.68,17.37,0,18.46.79,14.99,10.82Z"/>
    <path class="cls-7" d="M403.35,721.01c-1.79,1.79-5.85,1.69-6.85-.2-.4-.79-2.28-7.94-4.27-15.98-1.88-8.04-3.67-15.28-3.87-16.08-.4-1.19-1.19-1.49-4.27-1.19l-3.87.2-1.09,4.17c-.6,2.28-1.39,6.05-1.79,8.34-1.99,10.82-4.47,21.64-5.26,22.63-.99,1.19-2.88,1.39-3.57.3-.5-.79,11.21-60.84,13.4-68.48.5-1.69,3.47-1.98,5.56-.4.79.6,2.68,5.46,4.37,11.41,4.17,14.69,12.8,49.72,12.8,52,0,1.19-.5,2.38-1.29,3.28ZM387.17,683.39c0-.3-.7-3.77-1.49-7.64-1.39-6.55-1.59-6.85-2.08-4.17-.3,1.59-.69,3.77-.99,4.96-1.59,8.14-1.69,7.44,1.59,7.44,1.69,0,2.98-.2,2.98-.6Z"/>
    <path class="cls-7" d="M409.1,722.59c-1.49-2.78-2.48-20.05-2.48-45.06v-19.75c.1-3.08.7-3.57,2.08-4.37,1.59-.69,2.58-.69,4.17.1,1.49.6,2.68.69,3.77.1,2.48-1.39,10.82-.99,14.49.69,12.6,5.85,12.8,23.72.4,30.07-1.89.99-3.87,1.69-5.95,2.08l-3.08.6,3.87,5.95c5.86,9.13,16.08,26.9,16.08,27.99s-2.98,2.88-4.17,2.88c-1.89,0-10.72-15.28-15.88-27.59-5.56-13.6-5.76-13.3-5.76,7.44,0,9.92-.3,18.56-.59,19.25-.7,2.08-5.86,1.79-6.95-.4ZM416.74,670v12.7h4.37c3.27,0,5.06-.4,6.75-1.79,4.57-3.67,5.96-12.11,2.98-18.76-1.89-3.97-5.16-6.05-9.83-6.05-4.37.3-4.37,1.09-4.27,13.89Z"/>
    <path class="cls-7" d="M444.63,674.96c0-16.38-.1-18.46,1.29-20.25.89-.99,2.18-1.49,3.97-.69,1.79.79,2.08,1.59,2.58,7.05.59,7.44.79,60.24.2,61.33-.99,1.49-4.66,1.59-6.05.2-1.29-1.29-.99-3.77-1.39-15.48-.3-7.74-.6-22.13-.6-32.15Z"/>
    <path class="cls-7" d="M489.98,721.01c-1.79,1.79-5.86,1.69-6.85-.2-.4-.79-2.28-7.94-4.27-15.98-1.89-8.04-3.67-15.28-3.87-16.08-.4-1.19-1.19-1.49-4.27-1.19l-3.87.2-1.09,4.17c-.6,2.28-1.39,6.05-1.79,8.34-1.99,10.82-4.47,21.64-5.26,22.63-.99,1.19-2.88,1.39-3.57.3-.5-.79,11.21-60.84,13.4-68.48.5-1.69,3.47-1.98,5.56-.4.79.6,2.68,5.46,4.37,11.41,4.17,14.69,12.8,49.72,12.8,52,0,1.19-.5,2.38-1.29,3.28ZM473.81,683.39c0-.3-.7-3.77-1.49-7.64-1.39-6.55-1.59-6.85-2.08-4.17-.3,1.59-.69,3.77-.99,4.96-1.59,8.14-1.69,7.44,1.59,7.44,1.69,0,2.98-.2,2.98-.6Z"/>
  </g>
  <g>
    <circle class="cls-23" cx="585.3" cy="478.13" r="28.41"/>
    <circle class="cls-20" cx="585.1" cy="488.91" r="6.9"/>
    <circle class="cls-28" cx="580.03" cy="462.84" r="5.31"/>
    <circle class="cls-27" cx="602.71" cy="474.2" r="4.87"/>
    <circle class="cls-31" cx="569.86" cy="482.21" r="4.3"/>
  </g>
  <path class="cls-38" d="M141.71,333.1c-2.43,2.58-5.97,1.06-7.23-1.02-1.47-2.44-1.61-5.55,1.29-7.18s5.9-3.05,7.68-5.84c-2.44-2.28-10.81-6.6-6.76-10.81,4.95-5.15,12.83-4.77,18.24-.12,7.34,6.31,13.4,19.4,5.17,26.36-1.77,1.5-3.51,2.04-5.54,1.74-4.45-.66-3.34-8.91-5.69-9.09-3.44-.26-4.97,3.62-7.17,5.96Z"/>
  <path class="cls-9" d="M198.98,425.6c-3.42.86-6.56,1.52-9.47.11s-5.19-4.81-3.48-7.61c1.28-2.09,4-.28,5.79-.77,2.79-.76-2.64-5.39-.8-7.99.67-.95,2.33-1.28,3.42-1.05,3.45.74.9,5.38,3.72,7.68,2-.5,3.58-2.96,5.88-1.97.69.3,1.48,1.31,1.65,2.5.59,4.25-2.32,8.01-6.69,9.1Z"/>
  <path class="cls-35" d="M200.38,230.14c6.93-2.38,13.82,1.01,16.48,7.71,2.31,5.82-.93,13.06-7.41,15.65-6.02,2.4-13.52.04-16.28-6.97-2.22-5.66.1-13.94,7.21-16.39Z"/>
  <circle class="cls-35" cx="232.07" cy="345.32" r="7.05"/>
  <g>
    <g>
      <circle class="cls-19" cx="133.46" cy="388.68" r="19.79"/>
      <circle class="cls-36" cx="137.06" cy="379.93" r="4.14"/>
      <circle class="cls-8" cx="143.1" cy="394.27" r="3.96"/>
    </g>
    <circle class="cls-24" cx="128.58" cy="395.8" r="2.57"/>
    <circle class="cls-21" cx="121.71" cy="383.9" r="2.58"/>
  </g>
  <g>
    <circle class="cls-19" cx="204.98" cy="311.53" r="20.04"/>
    <circle class="cls-4" cx="200.02" cy="301.91" r="4.41"/>
    <circle class="cls-29" cx="195.12" cy="318.6" r="3.52"/>
    <circle class="cls-37" cx="214.28" cy="308.44" r="3.19"/>
    <circle class="cls-30" cx="211.17" cy="322.06" r="2.62"/>
  </g>
  <g>
    <circle class="cls-6" cx="191.6" cy="373.18" r="14.81"/>
    <circle class="cls-3" cx="191.56" cy="373.17" r="8.07"/>
  </g>
  <g>
    <circle class="cls-11" cx="169.4" cy="280.13" r="9.89"/>
    <circle class="cls-10" cx="169.47" cy="280.18" r="5.42"/>
  </g>
  <g>
    <path class="cls-39" d="M211.89,766.11c4.97,0,8.81.96,11.5,2.89,2.7,1.93,4.67,4.55,5.94,7.88,1.26,3.33,2,7.23,2.21,11.71.21,4.48.32,9.25.32,14.29s-.11,9.81-.32,14.29c-.21,4.48-.95,8.39-2.21,11.71-1.26,3.33-3.24,5.95-5.94,7.88-2.7,1.93-6.53,2.89-11.5,2.89h-18.49v-73.54h18.49ZM211.89,829.67c2.03,0,3.57-.82,4.62-2.47,1.05-1.65,1.84-3.76,2.36-6.36.53-2.59.82-5.48.89-8.67.07-3.19.1-6.29.1-9.3s-.04-6.2-.1-9.35c-.07-3.15-.37-6.02-.89-8.62-.52-2.59-1.31-4.71-2.36-6.36-1.05-1.64-2.59-2.47-4.62-2.47h-7.46v53.58h7.46Z"/>
    <path class="cls-39" d="M262.63,766.11v9.98h-13.97v21.22h12.71v9.98h-12.71v22.38h13.97v9.98h-25v-73.54h25Z"/>
    <path class="cls-39" d="M280.7,785.13c0,2.1.4,3.92,1.21,5.46.8,1.54,1.98,3.01,3.52,4.41,1.54,1.4,3.42,2.84,5.62,4.31s4.71,3.22,7.51,5.25c1.68,1.19,3.17,2.33,4.46,3.41,1.3,1.09,2.4,2.26,3.31,3.52.91,1.26,1.61,2.7,2.1,4.31.49,1.61.74,3.5.74,5.67,0,6.09-1.77,10.82-5.31,14.18-3.54,3.36-8.28,5.04-14.24,5.04-6.72,0-11.71-2.26-14.97-6.78-3.26-4.52-4.89-11.5-4.89-20.96h11.03c0,2.31.21,4.54.63,6.67.42,2.14,1.03,4.03,1.84,5.67.8,1.65,1.82,2.98,3.05,3.99,1.22,1.02,2.68,1.56,4.36,1.63,1.96.14,3.69-.42,5.2-1.68,1.5-1.26,2.26-3.08,2.26-5.46,0-1.4-.28-2.61-.84-3.62-.56-1.01-1.31-2-2.26-2.94-.95-.95-2.03-1.85-3.26-2.73-1.23-.88-2.54-1.84-3.94-2.89-3.22-2.45-5.99-4.68-8.3-6.67-2.31-2-4.2-4.04-5.67-6.15s-2.54-4.41-3.2-6.93c-.67-2.52-1-5.53-1-9.04,0-5.46,1.63-9.79,4.88-12.98,3.26-3.19,7.9-4.78,13.92-4.78,6.79,0,11.77,2.26,14.92,6.78,3.15,4.52,4.73,11.71,4.73,21.59v3.15h-11.03v-4.52c0-5.53-.7-9.75-2.1-12.66-1.4-2.91-3.5-4.36-6.3-4.36-2.31,0-4.22.93-5.73,2.78-1.51,1.86-2.26,4.29-2.26,7.3Z"/>
    <path class="cls-39" d="M332.92,766.11c4.97,0,8.81.96,11.5,2.89,2.7,1.93,4.67,4.55,5.94,7.88,1.26,3.33,2,7.23,2.21,11.71.21,4.48.32,9.25.32,14.29s-.11,9.81-.32,14.29c-.21,4.48-.95,8.39-2.21,11.71-1.26,3.33-3.24,5.95-5.94,7.88-2.7,1.93-6.53,2.89-11.5,2.89h-18.49v-73.54h18.49ZM332.92,829.67c2.03,0,3.57-.82,4.62-2.47,1.05-1.65,1.84-3.76,2.36-6.36.53-2.59.82-5.48.89-8.67.07-3.19.1-6.29.1-9.3s-.04-6.2-.1-9.35c-.07-3.15-.37-6.02-.89-8.62-.52-2.59-1.31-4.71-2.36-6.36-1.05-1.64-2.59-2.47-4.62-2.47h-7.46v53.58h7.46Z"/>
    <path class="cls-39" d="M383.66,766.11v9.98h-13.97v21.22h12.71v9.98h-12.71v22.38h13.97v9.98h-25v-73.54h25Z"/>
    <path class="cls-39" d="M446.59,784.81c0,3.64-.65,6.95-1.94,9.93-1.3,2.98-2.91,5.69-4.83,8.14-1.93,2.45-4.01,4.66-6.25,6.62-2.24,1.96-4.34,3.78-6.3,5.46-2.59,2.24-4.59,4.46-5.99,6.67-1.4,2.21-2.1,4.89-2.1,8.04h24.48v9.98h-35.51v-9.98c0-3.78.4-6.99,1.21-9.61.8-2.63,1.84-4.87,3.1-6.72,1.26-1.85,2.71-3.48,4.36-4.89,1.64-1.4,3.31-2.77,4.99-4.1,1.75-1.4,3.45-2.92,5.1-4.57,1.64-1.65,3.12-3.33,4.41-5.04,1.29-1.72,2.33-3.43,3.1-5.15.77-1.72,1.16-3.31,1.16-4.78,0-.63-.12-1.49-.37-2.57-.25-1.08-.68-2.17-1.31-3.26-.63-1.08-1.49-2.01-2.57-2.78-1.09-.77-2.5-1.16-4.25-1.16s-3.26.61-4.31,1.84c-1.05,1.23-1.86,2.73-2.42,4.52-.56,1.79-.91,3.71-1.05,5.78-.14,2.07-.21,3.94-.21,5.62v2.42c0,.42.02.82.05,1.21.04.39.05.79.05,1.21h-11.14v-1.58c0-3.57.14-7.18.42-10.82.28-3.64,1.05-6.97,2.31-9.98,1.26-3.01,3.19-5.46,5.78-7.35,2.59-1.89,6.23-2.84,10.93-2.84,3.5,0,6.46.56,8.88,1.68,2.42,1.12,4.39,2.59,5.94,4.41,1.54,1.82,2.64,3.92,3.31,6.3.66,2.38,1,4.83,1,7.35Z"/>
    <path class="cls-39" d="M470.75,765.06c4.83,0,8.6,1.02,11.29,3.05,2.7,2.03,4.67,4.78,5.94,8.25,1.26,3.47,2.03,7.5,2.31,12.08.28,4.59.42,9.4.42,14.45s-.14,9.86-.42,14.45c-.28,4.59-1.05,8.62-2.31,12.08-1.26,3.47-3.24,6.22-5.94,8.25-2.7,2.03-6.46,3.05-11.29,3.05s-8.6-1.02-11.29-3.05c-2.7-2.03-4.67-4.78-5.94-8.25-1.26-3.47-2.03-7.49-2.31-12.08-.28-4.59-.42-9.4-.42-14.45s.12-9.86.37-14.45c.25-4.59,1.01-8.62,2.31-12.08,1.29-3.47,3.29-6.22,5.99-8.25,2.7-2.03,6.46-3.05,11.29-3.05ZM461.82,802.88c0,3.01.05,6.16.16,9.46.11,3.29.46,6.3,1.05,9.04.59,2.73,1.49,4.97,2.68,6.72,1.19,1.75,2.87,2.63,5.04,2.63s3.85-.88,5.04-2.63c1.19-1.75,2.08-3.99,2.68-6.72.59-2.73.95-5.74,1.05-9.04.1-3.29.16-6.44.16-9.46s-.05-6.25-.16-9.51c-.11-3.26-.46-6.25-1.05-8.98-.6-2.73-1.49-4.97-2.68-6.72-1.19-1.75-2.87-2.63-5.04-2.63s-3.85.88-5.04,2.63c-1.19,1.75-2.08,3.99-2.68,6.72-.6,2.73-.95,5.73-1.05,8.98-.1,3.26-.16,6.43-.16,9.51Z"/>
    <path class="cls-39" d="M514.88,765.06c4.83,0,8.6,1.02,11.29,3.05,2.7,2.03,4.67,4.78,5.94,8.25,1.26,3.47,2.03,7.5,2.31,12.08.28,4.59.42,9.4.42,14.45s-.14,9.86-.42,14.45c-.28,4.59-1.05,8.62-2.31,12.08-1.26,3.47-3.24,6.22-5.94,8.25-2.7,2.03-6.46,3.05-11.29,3.05s-8.6-1.02-11.29-3.05c-2.7-2.03-4.67-4.78-5.94-8.25-1.26-3.47-2.03-7.49-2.31-12.08-.28-4.59-.42-9.4-.42-14.45s.12-9.86.37-14.45c.25-4.59,1.01-8.62,2.31-12.08,1.29-3.47,3.29-6.22,5.99-8.25,2.7-2.03,6.46-3.05,11.29-3.05ZM505.95,802.88c0,3.01.05,6.16.16,9.46.11,3.29.46,6.3,1.05,9.04.59,2.73,1.49,4.97,2.68,6.72,1.19,1.75,2.87,2.63,5.04,2.63s3.85-.88,5.04-2.63c1.19-1.75,2.08-3.99,2.68-6.72.59-2.73.95-5.74,1.05-9.04.1-3.29.16-6.44.16-9.46s-.05-6.25-.16-9.51c-.11-3.26-.46-6.25-1.05-8.98-.6-2.73-1.49-4.97-2.68-6.72-1.19-1.75-2.87-2.63-5.04-2.63s-3.85.88-5.04,2.63c-1.19,1.75-2.08,3.99-2.68,6.72-.6,2.73-.95,5.73-1.05,8.98-.1,3.26-.16,6.43-.16,9.51Z"/>
    <path class="cls-39" d="M555.43,766.53v73.12h-11.03v-60.94l-3.78.1v-9.98l14.81-2.31Z"/>
  </g>
</svg>